HIERARCHY
ROOT Hips
{
  OFFSET 129.29 99.348 -264.245
  CHANNELS 6 Xposition Yposition Zposition Zrotation Xrotation Yrotation
  JOINT RightUpLeg
  {
    OFFSET -8.9458 -8.66707 0.101652
    CHANNELS 3 Zrotation Xrotation Yrotation
    JOINT RightLeg
    {
      OFFSET 0 -44.4227 1.3727
      CHANNELS 3 Zrotation Xrotation Yrotation
      JOINT RightFoot
      {
        OFFSET 0.253549 -42.0924 -1.46059
        CHANNELS 3 Zrotation Xrotation Yrotation
        JOINT RightToes
        {
          OFFSET 0.04 -4.41509 8.4991
          CHANNELS 3 Zrotation Xrotation Yrotation
          End Site
          {
            OFFSET -0.08 -0.137448 9.77979
          }
        }
      }
    }
  }
  JOINT Spine
  {
    OFFSET 0 11.8905 0
    CHANNELS 3 Zrotation Xrotation Yrotation
    JOINT Spine1
    {
      OFFSET 0 25.6574 0.127663
      CHANNELS 3 Zrotation Xrotation Yrotation
      JOINT HEad
      {
        OFFSET 0 8.73416 0.011341
        CHANNELS 3 Zrotation Xrotation Yrotation
        End Site
        {
          OFFSET -0.29 12.7742 2.51395
        }
      }
      JOINT LeftShoulder1
      {
        OFFSET 8.99 -0.362252 -0.22
        CHANNELS 3 Zrotation Xrotation Yrotation
        JOINT LeftArm
        {
          OFFSET 10.2827 -0.00338 0.322123
          CHANNELS 3 Zrotation Xrotation Yrotation
          JOINT LeftForeArm
          {
            OFFSET 32.7669 0.099144 -1.42434
            CHANNELS 3 Zrotation Xrotation Yrotation
            JOINT LeftHand
            {
              OFFSET 27.5643 0.085362 1.02216
              CHANNELS 3 Zrotation Xrotation Yrotation
              End Site
              {
                OFFSET 16.7443 -0.6 1.50291
              }
            }
          }
        }
      }
      JOINT RightShoulder
      {
        OFFSET -8.99 -0.362252 -0.22
        CHANNELS 3 Zrotation Xrotation Yrotation
        JOINT RightArm
        {
          OFFSET -10.2827 -0.00338 0.322123
          CHANNELS 3 Zrotation Xrotation Yrotation
          JOINT RightForeArm
          {
            OFFSET -32.8971 0.099144 -1.42434
            CHANNELS 3 Zrotation Xrotation Yrotation
            JOINT RightHand
            {
              OFFSET -27.4921 0.085362 1.02216
              CHANNELS 3 Zrotation Xrotation Yrotation
              End Site
              {
                OFFSET -16.6312 -0.6 1.50291
              }
            }
          }
        }
      }
    }
  }
  JOINT LeftUpLeg
  {
    OFFSET 8.9458 -8.66707 0.101652
    CHANNELS 3 Zrotation Xrotation Yrotation
    JOINT LeftLeg
    {
      OFFSET 0 -44.4227 1.3727
      CHANNELS 3 Zrotation Xrotation Yrotation
      JOINT LeftFoot
      {
        OFFSET -0.253549 -42.0924 -1.46059
        CHANNELS 3 Zrotation Xrotation Yrotation
        JOINT LeftToes
        {
          OFFSET -0.04 -4.41509 8.4991
          CHANNELS 3 Zrotation Xrotation Yrotation
          End Site
          {
            OFFSET 0.08 -0.047448 9.77979
          }
        }
      }
    }
  }
}
MOTION
Frames:	10
Frame Time:	0.0166667
108.917 95.8738 -279.733 5.58813 -6.55185 9.10101 -24.1037 -12.896 -11.0071 -32.9247 50.1156 55.7866 14.3416 2.27977 -0.132541 0.0462048 0.000533403 0.662642 7.64336 17.6587 4.76047 0.0178374 -0.00970839 0.000411236 -37.786 19.1371 33.3162 2.78299e-015 0 -0 130.609 -69.4501 142.067 -85.827 56.7224 -56.6713 3.64074 22.6104 -1.64973 29.6477 1.47354 10.8751 53.7785 -25.4965 62.7227 45.7331 54.5775 81.1481 -7.96672 22.9666 2.39631 12.5845 -24.1725 10.6579 6.57964 29.0745 10.7989 22.1962 -3.7926 1.47454 -1.18447e-009 1.5602e-007 -4.87131e-009 
106.538 95.4735 -281.074 5.57742 -5.67154 10.1121 -24.2047 -8.26779 -6.9049 -22.2215 45.4437 44.9177 14.6245 1.43615 -0.128293 0.0462048 0.000533403 0.662642 7.28237 17.3256 5.18259 0.0178374 -0.00970839 0.000411236 -38.4503 17.9368 33.1229 3.97569e-016 1.59028e-015 -3.18055e-015 130.432 -69.6427 142.676 -85.7764 56.7635 -57.0824 3.63952 22.7888 -3.43186 28.9218 1.28759 10.2989 55.9042 -24.7748 64.0519 46.1734 54.6504 80.6693 -7.6027 22.6223 1.8566 13.3072 -25.195 9.25039 4.84767 27.5919 10.621 26.6078 -3.22925 1.60137 -1.18447e-009 1.5602e-007 -4.87131e-009 
104.177 95.1394 -282.324 5.39384 -4.86546 10.9671 -23.748 -3.5619 -2.14945 -13.474 39.959 33.552 12.6363 0.484394 0.00349052 0.0462048 0.000533403 0.662642 7.12443 16.9602 5.59523 0.0178374 -0.00970839 0.000411236 -38.8768 16.8401 32.9711 -1.59028e-015 4.77083e-015 6.36111e-015 130.531 -69.7611 143.68 -86.038 56.8558 -57.0453 4.25239 21.6597 -2.10279 28.0667 1.31202 9.52863 58.2614 -23.8877 65.6766 46.7439 54.7857 79.8224 -7.34463 22.4538 1.375 13.9512 -26.0234 8.02907 3.92569 26.3231 7.83298 30.1978 -2.66034 1.61011 -1.18446e-009 1.5602e-007 -4.87131e-009 
101.843 94.7981 -283.49 5.09435 -4.17964 11.683 -23.5464 0.594837 2.28145 -7.03662 33.9436 23.4405 12.6739 -0.480036 0.0822324 0.0462048 0.000533403 0.662642 7.11644 16.6201 5.97484 0.0178374 -0.00970839 0.000411236 -39.1071 15.842 32.9116 -7.95139e-016 -1.59028e-015 -3.18055e-015 130.729 -69.8139 144.985 -86.7662 57.0414 -56.5683 4.36136 21.2528 -3.25755 27.2748 1.55883 8.57562 60.558 -22.8745 67.4623 47.3856 54.9468 78.7405 -7.18741 22.2946 0.834235 14.5475 -26.7899 6.99452 3.81815 25.5119 2.864 32.7908 -2.1902 1.56987 -1.18447e-009 1.5602e-007 -4.87132e-009 
99.5489 94.485 -284.528 4.76781 -3.68363 12.298 -23.3007 4.11548 6.28282 -1.06122 29.8024 13.4146 8.7913 -1.50255 0.181996 0.0462048 0.000533403 0.662642 7.1918 16.3664 6.27745 0.0178374 -0.00970839 0.000411236 -39.1825 14.9693 32.9842 -2.64834e-031 -1.59028e-015 -9.54166e-015 130.995 -69.8389 146.523 -87.9627 57.2439 -55.6445 4.82522 20.2852 -2.564 26.6962 1.91851 7.61462 62.5061 -21.8904 69.0542 48.036 55.1139 77.6328 -7.17851 22.1962 0.482726 15.13 -27.3214 6.11055 3.68028 24.4422 -1.52766 34.9988 -1.85906 1.51679 -1.18447e-009 1.5602e-007 -4.87131e-009 
97.3349 94.1276 -285.436 4.43632 -3.37614 12.8455 -23.5616 7.05691 10.0518 4.95704 26.049 4.18711 8.18003 -2.12361 0.217258 0.0462048 0.000533403 0.662642 7.34427 16.1918 6.46018 0.0178374 -0.00970839 0.000411236 -39.1708 14.2724 33.2274 4.77083e-015 -4.77083e-015 -3.18055e-015 131.437 -69.8769 148.327 -89.5082 57.4469 -54.3667 4.89523 20.005 -3.39603 26.1417 2.32173 6.65108 64.317 -20.9151 70.4225 48.6516 55.234 76.5369 -7.25222 22.0912 0.153505 15.7226 -27.6838 5.36985 3.62458 23.4147 -5.36382 36.6921 -1.66279 1.50691 -1.18446e-009 1.5602e-007 -4.87131e-009 
95.2816 93.8003 -286.199 4.10696 -3.25385 13.3532 -23.8275 9.43314 13.4147 10.6896 22.6363 -3.51713 4.66172 -2.7634 0.221099 0.0462048 0.000533403 0.662642 7.59428 16.0647 6.50315 0.0178374 -0.00970839 0.000411236 -39.1177 13.8215 33.6548 1.59028e-015 0 -0 132.25 -69.9579 150.438 -91.2309 57.5484 -52.8249 5.13736 19.5954 -3.17286 25.7926 2.65062 5.82453 65.7832 -20.0113 71.3629 49.1825 55.2954 75.5158 -7.40881 22.001 0.118991 16.2788 -27.7398 4.74636 3.61839 22.3503 -8.5874 37.8861 -1.50839 1.48371 -1.18446e-009 1.5602e-007 -4.87131e-009 
93.2984 93.5205 -286.932 3.77721 -3.28889 13.8163 -23.6721 10.6049 15.7774 14.9568 20.2184 -8.61735 3.91721 -3.02795 0.264157 0.0462048 0.000533403 0.662642 7.90461 15.968 6.43498 0.0178374 -0.00970839 0.000411236 -38.9535 13.579 34.2161 -1.59028e-015 3.18055e-015 -0 133.473 -70.178 152.84 -92.8558 57.5621 -51.2503 5.06383 19.5012 -3.60579 25.4357 3.04709 5.10385 67.1619 -19.1897 72.0548 49.5869 55.3105 74.588 -7.32995 21.8191 -0.17297 16.8707 -27.6926 4.2583 3.59402 21.5785 -11.1033 38.6515 -1.45027 1.48773 -1.18447e-009 1.5602e-007 -4.87131e-009 
91.5015 93.3188 -287.552 3.43493 -3.44851 14.2059 -22.7953 10.8852 17.0512 17.6487 19.1276 -11.2252 1.1507 -3.25305 0.198196 0.0462048 0.000533403 0.662642 8.24161 15.8825 6.3134 0.0178374 -0.00970839 0.000411236 -38.6889 13.5604 34.8769 1.59028e-015 1.59028e-015 -0 135.136 -70.5409 155.521 -94.2007 57.4802 -49.7787 5.19851 19.423 -3.37522 25.1183 3.46099 4.56537 68.3478 -18.5233 72.4614 49.856 55.2881 73.7397 -7.15745 21.7788 -0.338132 17.5034 -27.55 3.9668 2.84399 21.9366 -11.3012 39.8476 -1.26562 1.48892 -1.18446e-009 1.5602e-007 -4.87132e-009 
89.8933 93.2638 -288.072 3.07879 -3.69898 14.4995 -21.5545 10.6418 17.4412 18.3528 19.1131 -11.4347 2.72808 -3.16368 0.259461 0.0462048 0.000533403 0.662642 8.56946 15.7986 6.17863 0.0178374 -0.00970839 0.000411236 -38.3537 13.7697 35.6173 1.59028e-015 -1.59028e-015 -0 137.081 -70.993 158.298 -95.1099 57.3438 -48.621 5.18884 19.7157 -3.56585 24.7754 3.8605 4.11751 69.3804 -17.9057 72.7177 49.9738 55.2217 72.975 -6.78347 21.7876 -0.524857 18.2292 -27.4766 3.92325 1.66579 22.8949 -9.5693 41.0899 -1.04282 1.5067 -1.18447e-009 1.5602e-007 -4.87131e-009 
